<?xml version="1.0" encoding="utf-8"?>
<!-- Generator: Adobe Illustrator 16.0.0, SVG Export Plug-In . SVG Version: 6.00 Build 0)  -->
<!DOCTYPE svg PUBLIC "-//W3C//DTD SVG 1.1//EN" "http://www.w3.org/Graphics/SVG/1.1/DTD/svg11.dtd">
<svg version="1.1" xmlns="http://www.w3.org/2000/svg" xmlns:xlink="http://www.w3.org/1999/xlink" x="0px" y="0px"
	 width="680.628px" height="589.442px" viewBox="0 0 680.628 589.442" enable-background="new 0 0 680.628 589.442"
	 xml:space="preserve">
<g id="Layer_2">
</g>
<g id="Layer_1">
	<path fill="#F16364" d="M236.328,259.127v74.441v13.571v85.956h-13.572v-85.956h-99.528v-13.983l71.562-178.081h15.217
		l-71.973,178.493h84.722v-74.441H236.328z"/>
	<path fill="#3BBA95" d="M325.158,435.152c-8.225,0-15.975-1.581-23.237-4.729c-7.268-3.149-13.572-7.403-18.918-12.75
		s-9.601-11.65-12.75-18.918c-3.155-7.262-4.729-15.012-4.729-23.237V213.064c0-8.225,1.574-15.969,4.729-23.237
		c3.149-7.261,7.403-13.572,12.75-18.918s11.651-9.594,18.918-12.75c7.262-3.149,15.012-4.729,23.237-4.729
		c8.227,0,15.898,1.581,23.031,4.729c7.127,3.155,13.367,7.403,18.713,12.75c5.348,5.347,9.594,11.657,12.75,18.918
		c3.148,7.268,4.729,15.012,4.729,23.237v162.453c0,8.226-1.58,15.976-4.729,23.237c-3.156,7.268-7.402,13.571-12.75,18.918
		c-5.346,5.347-11.586,9.601-18.713,12.75C341.057,433.571,333.385,435.152,325.158,435.152z M325.158,167.002
		c-6.31,0-12.274,1.24-17.89,3.708c-5.623,2.474-10.487,5.771-14.6,9.89s-7.403,8.926-9.871,14.414
		c-2.468,5.494-3.702,11.4-3.702,17.71V375.44c0,6.323,1.234,12.293,3.702,17.923c2.468,5.629,5.758,10.507,9.871,14.626
		s8.977,7.415,14.6,9.883c5.616,2.475,11.58,3.708,17.89,3.708c6.305,0,12.197-1.233,17.686-3.708
		c5.48-2.468,10.281-5.764,14.395-9.883c4.111-4.119,7.402-8.997,9.869-14.626c2.469-5.63,3.703-11.6,3.703-17.923V212.724
		c0-6.311-1.234-12.216-3.703-17.71c-2.467-5.488-5.758-10.295-9.869-14.414c-4.113-4.119-8.914-7.416-14.395-9.89
		C337.355,168.242,331.463,167.002,325.158,167.002z"/>
	<path fill="#FEBC31" d="M518.042,259.127v74.441v13.571v85.956h-13.571v-85.956h-99.528v-13.983l71.562-178.081h15.217
		l-71.973,178.493h84.723v-74.441H518.042z"/>
	<polygon fill="none" stroke="#FFFFFF" stroke-width="8" stroke-miterlimit="10" points="187.265,559.81 34.216,294.721 
		187.265,29.632 493.363,29.632 646.413,294.721 493.363,559.81 	"/>
	<g>
	</g>
	<g>
	</g>
	<g>
	</g>
	<g>
	</g>
	<g>
	</g>
	<g>
	</g>
</g>
</svg>
